<svg width="400" height="400" viewBox="0 0 400 400" xmlns="http://www.w3.org/2000/svg">

<rect width="400" height="400" fill="#f8f4ec"/>

<circle cx="200" cy="185" r="130" fill="#f8f4ec"/>
<circle cx="200" cy="185" r="130" fill="none" stroke="#c8960a" stroke-width="1.8"/>
<circle cx="200" cy="185" r="120" fill="none" stroke="#c8960a" stroke-width="0.7" stroke-dasharray="4 3"/>

<g transform="translate(200,185)">

  <g id="op">
    <path d="M 0,-105 C 22,-82 26,-45 18,-15 C 8,-6 -8,-6 -18,-15 C -26,-45 -22,-82 0,-105 Z" fill="#b07808"/>
    <path d="M 0,-105 C 14,-82 16,-48 8,-16 C 3,-10 -3,-10 -8,-16 C -16,-48 -14,-82 0,-105 Z" fill="#d4a010"/>
    <path d="M 0,-105 C 6,-86 7,-62 3,-30 C 1,-26 -1,-26 -3,-30 C -7,-62 -6,-86 0,-105 Z" fill="#e8b818" opacity="0.7"/>
  </g>
  <use href="#op" transform="rotate(60)"/>
  <use href="#op" transform="rotate(120)"/>
  <use href="#op" transform="rotate(180)"/>
  <use href="#op" transform="rotate(240)"/>
  <use href="#op" transform="rotate(300)"/>

  <g id="mp">
    <path d="M 0,-72 C 16,-58 19,-34 13,-11 C 6,-5 -6,-5 -13,-11 C -19,-34 -16,-58 0,-72 Z" fill="#c89010"/>
    <path d="M 0,-72 C 9,-56 11,-36 6,-13 C 2,-8 -2,-8 -6,-13 C -11,-36 -9,-56 0,-72 Z" fill="#e8b818"/>
    <path d="M 0,-72 C 4,-58 5,-42 2,-20 C 0,-16 0,-16 -2,-20 C -5,-42 -4,-58 0,-72 Z" fill="#f0c820" opacity="0.6"/>
  </g>
  <use href="#mp" transform="rotate(30)"/>
  <use href="#mp" transform="rotate(60)"/>
  <use href="#mp" transform="rotate(90)"/>
  <use href="#mp" transform="rotate(120)"/>
  <use href="#mp" transform="rotate(150)"/>
  <use href="#mp" transform="rotate(180)"/>
  <use href="#mp" transform="rotate(210)"/>
  <use href="#mp" transform="rotate(240)"/>
  <use href="#mp" transform="rotate(270)"/>
  <use href="#mp" transform="rotate(300)"/>
  <use href="#mp" transform="rotate(330)"/>

  <circle cx="0" cy="0" r="27" fill="#b07808"/>
  <circle cx="0" cy="0" r="21" fill="#d4a010"/>
  <circle cx="0" cy="0" r="14" fill="#e8b818"/>
  <circle cx="0" cy="0" r="9"  fill="#c89010"/>
  <circle cx="0" cy="0" r="5"  fill="#f0c820"/>

  <g id="sc">
    <circle cx="0" cy="-17" r="2" fill="#b07808"/>
  </g>
  <use href="#sc" transform="rotate(0)"/>
  <use href="#sc" transform="rotate(45)"/>
  <use href="#sc" transform="rotate(90)"/>
  <use href="#sc" transform="rotate(135)"/>
  <use href="#sc" transform="rotate(180)"/>
  <use href="#sc" transform="rotate(225)"/>
  <use href="#sc" transform="rotate(270)"/>
  <use href="#sc" transform="rotate(315)"/>

</g>

<text x="200" y="345" text-anchor="middle"
  font-family="Georgia, serif" font-size="26" font-weight="500" letter-spacing="2"
  fill="#7a5000">GOLDEN LOTUS</text>

<line x1="68" y1="358" x2="158" y2="358" stroke="#c8960a" stroke-width="0.8"/>
<circle cx="167" cy="358" r="2.5" fill="#c8960a"/>
<circle cx="200" cy="358" r="2.5" fill="#c8960a"/>
<circle cx="233" cy="358" r="2.5" fill="#c8960a"/>
<line x1="242" y1="358" x2="332" y2="358" stroke="#c8960a" stroke-width="0.8"/>

<text x="200" y="382" text-anchor="middle"
  font-family="Georgia, serif" font-size="11" letter-spacing="8"
  fill="#9a7010">TAI  CHI</text>

</svg>
